<svg width="50" height="53" viewBox="0 0 50 53" fill="none" xmlns="http://www.w3.org/2000/svg">
<path d="M41.9231 6.93088H38.0769V5.30011C38.0769 3.4655 36.7308 2.03857 35 2.03857C33.2692 2.03857 31.9231 3.4655 31.9231 5.30011V6.93088H18.0769V5.30011C18.0769 3.4655 16.7308 2.03857 15 2.03857C13.2692 2.03857 11.9231 3.4655 11.9231 5.30011V6.93088H8.07693C5.57693 6.93088 3.46155 9.17319 3.46155 11.8232V13.454C3.46155 14.3713 4.13462 15.0847 5.00001 15.0847H45C45.8654 15.0847 46.5385 14.3713 46.5385 13.454V11.8232C46.5385 9.17319 44.4231 6.93088 41.9231 6.93088Z" fill="black"/>
<path d="M45 19.9768H5.00001C4.13462 19.9768 3.46155 20.6903 3.46155 21.6076V46.0691C3.46155 48.7191 5.57693 50.9614 8.07693 50.9614H41.9231C44.4231 50.9614 46.5385 48.7191 46.5385 46.0691V21.6076C46.5385 20.6903 45.8654 19.9768 45 19.9768ZM25 47.598C18.6539 47.598 13.5577 42.0941 13.5577 35.4691C13.5577 28.7422 18.75 23.3403 25 23.3403C31.25 23.3403 36.4423 28.8441 36.4423 35.4691C36.4423 42.196 31.3462 47.598 25 47.598Z" fill="black"/>
<path d="M26.1538 34.9595V29.7614C26.1538 29.3537 25.7692 28.946 25.3846 28.946H24.6154C24.2307 28.946 23.8461 29.3537 23.8461 29.7614V35.4691C23.8461 35.7749 23.9423 36.0807 24.2307 36.2845L27.8846 40.1576C28.1731 40.4634 28.6538 40.4634 28.9423 40.1576L29.5192 39.546C29.8077 39.2403 29.8077 38.7307 29.5192 38.4249L26.1538 34.9595Z" fill="black"/>
</svg>
